<svg width="76" height="13" viewBox="0 0 76 13" fill="none" xmlns="http://www.w3.org/2000/svg">
<path d="M22.6437 1.29363L24.1084 4.42954L27.3854 4.93403C27.9731 5.02403 28.2086 5.78906 27.7824 6.22723L25.4116 8.6668L25.9723 12.113C26.0733 12.7359 25.452 13.2025 24.9316 12.9112L22 11.284L19.0684 12.9112C18.548 13.2001 17.9267 12.7359 18.0277 12.113L18.5884 8.6668L16.2176 6.22723C15.7914 5.78906 16.0269 5.02403 16.6146 4.93403L19.8916 4.42954L21.3563 1.29363C21.6187 0.734661 22.3791 0.727556 22.6437 1.29363Z" fill="black"/>
<path d="M38.6437 1.29363L40.1084 4.42954L43.3854 4.93403C43.9731 5.02403 44.2086 5.78906 43.7824 6.22723L41.4116 8.6668L41.9723 12.113C42.0733 12.7359 41.452 13.2025 40.9316 12.9112L38 11.284L35.0684 12.9112C34.548 13.2001 33.9267 12.7359 34.0277 12.113L34.5884 8.6668L32.2176 6.22723C31.7914 5.78906 32.0269 5.02403 32.6146 4.93403L35.8916 4.42954L37.3563 1.29363C37.6187 0.734661 38.3791 0.727556 38.6437 1.29363Z" fill="black"/>
<path d="M54.6437 1.29363L56.1084 4.42954L59.3854 4.93403C59.9731 5.02403 60.2086 5.78906 59.7824 6.22723L57.4116 8.6668L57.9723 12.113C58.0733 12.7359 57.452 13.2025 56.9316 12.9112L54 11.284L51.0684 12.9112C50.548 13.2001 49.9267 12.7359 50.0277 12.113L50.5884 8.6668L48.2176 6.22723C47.7914 5.78906 48.0269 5.02403 48.6146 4.93403L51.8916 4.42954L53.3563 1.29363C53.6187 0.734661 54.3791 0.727556 54.6437 1.29363Z" fill="black"/>
<path d="M70.6437 1.29363L72.1084 4.42954L75.3854 4.93403C75.9731 5.02403 76.2086 5.78906 75.7824 6.22723L73.4116 8.6668L73.9723 12.113C74.0733 12.7359 73.452 13.2025 72.9316 12.9112L70 11.284L67.0684 12.9112C66.548 13.2001 65.9267 12.7359 66.0277 12.113L66.5884 8.6668L64.2176 6.22723C63.7914 5.78906 64.0269 5.02403 64.6146 4.93403L67.8916 4.42954L69.3563 1.29363C69.6187 0.734661 70.3791 0.727556 70.6437 1.29363Z" fill="black"/>
<path d="M6.64374 1.29363L8.10841 4.42954L11.3854 4.93403C11.9731 5.02403 12.2086 5.78906 11.7824 6.22723L9.41158 8.6668L9.97233 12.113C10.0733 12.7359 9.45196 13.2025 8.93158 12.9112L6 11.284L3.06841 12.9112C2.54804 13.2001 1.92673 12.7359 2.02767 12.113L2.58842 8.6668L0.217579 6.22723C-0.208589 5.78906 0.026926 5.02403 0.614589 4.93403L3.89159 4.42954L5.35626 1.29363C5.61869 0.734661 6.37906 0.727556 6.64374 1.29363Z" fill="black"/>
</svg>
